<svg xmlns="http://www.w3.org/2000/svg" xmlns:xlink="http://www.w3.org/1999/xlink" width="40" zoomAndPan="magnify" viewBox="0 0 30 30.000001" height="40" preserveAspectRatio="xMidYMid meet" version="1.0"><defs><clipPath id="e5ac3d1083"><path d="M 2.039062 5.265625 L 28 5.265625 L 28 16 L 2.039062 16 Z M 2.039062 5.265625 " clip-rule="nonzero"/></clipPath><clipPath id="4ae498c6c7"><path d="M 2.039062 8 L 28 8 L 28 23.410156 L 2.039062 23.410156 Z M 2.039062 8 " clip-rule="nonzero"/></clipPath></defs><g clip-path="url(#e5ac3d1083)"><path fill="#0a74da" d="M 13.300781 14.816406 C 13.542969 15.003906 13.808594 15.144531 14.097656 15.242188 C 14.390625 15.34375 14.6875 15.390625 14.992188 15.390625 C 15.300781 15.390625 15.597656 15.34375 15.886719 15.242188 C 16.175781 15.144531 16.445312 15.003906 16.6875 14.816406 L 27.433594 6.441406 C 27.175781 6.074219 26.84375 5.785156 26.445312 5.578125 C 26.042969 5.367188 25.617188 5.265625 25.167969 5.265625 L 4.820312 5.265625 C 4.34375 5.265625 3.894531 5.382812 3.476562 5.617188 C 3.058594 5.851562 2.726562 6.171875 2.472656 6.578125 Z M 13.300781 14.816406 " fill-opacity="1" fill-rule="nonzero"/></g><g clip-path="url(#4ae498c6c7)"><path fill="#0a74da" d="M 17.820312 16.28125 C 17.414062 16.59375 16.972656 16.832031 16.488281 16.992188 C 16.003906 17.15625 15.507812 17.238281 15 17.238281 C 14.488281 17.238281 13.992188 17.15625 13.507812 16.992188 C 13.027344 16.832031 12.582031 16.59375 12.179688 16.28125 L 2.046875 8.578125 L 2.046875 20.988281 C 2.046875 21.355469 2.117188 21.707031 2.257812 22.046875 C 2.398438 22.386719 2.601562 22.6875 2.859375 22.949219 C 3.121094 23.207031 3.421875 23.410156 3.761719 23.550781 C 4.101562 23.691406 4.453125 23.761719 4.820312 23.761719 L 25.167969 23.761719 C 25.535156 23.761719 25.890625 23.691406 26.230469 23.550781 C 26.570312 23.410156 26.871094 23.207031 27.128906 22.949219 C 27.390625 22.6875 27.589844 22.386719 27.730469 22.046875 C 27.871094 21.707031 27.941406 21.355469 27.941406 20.988281 L 27.941406 8.394531 Z M 17.820312 16.28125 " fill-opacity="1" fill-rule="nonzero"/></g></svg>