<svg xmlns="http://www.w3.org/2000/svg" xmlns:xlink="http://www.w3.org/1999/xlink" width="40" zoomAndPan="magnify" viewBox="0 0 30 30.000001" height="40" preserveAspectRatio="xMidYMid meet" version="1.0"><defs><clipPath id="f270d65052"><path d="M 1 1.777344 L 29 1.777344 L 29 15 L 1 15 Z M 1 1.777344 " clip-rule="nonzero"/></clipPath><clipPath id="b17ade2b71"><path d="M 4 7 L 26 7 L 26 27.179688 L 4 27.179688 Z M 4 7 " clip-rule="nonzero"/></clipPath></defs><g clip-path="url(#f270d65052)"><path fill="#0a74da" d="M 27.835938 10.722656 L 23.523438 7.550781 L 23.523438 3.765625 C 23.523438 3.171875 23.039062 2.691406 22.449219 2.691406 L 20.703125 2.691406 C 20.109375 2.691406 19.628906 3.171875 19.628906 3.765625 L 19.628906 4.683594 L 16.339844 2.265625 C 15.625 1.738281 14.457031 1.738281 13.742188 2.265625 L 2.246094 10.722656 C 1.53125 11.246094 1.375 12.261719 1.902344 12.976562 L 2.21875 13.410156 C 2.746094 14.121094 3.757812 14.277344 4.472656 13.753906 L 13.742188 6.929688 C 14.457031 6.402344 15.625 6.402344 16.339844 6.929688 L 25.609375 13.753906 C 26.320312 14.277344 27.335938 14.121094 27.859375 13.410156 L 28.179688 12.976562 C 28.703125 12.261719 28.550781 11.246094 27.835938 10.722656 Z M 27.835938 10.722656 " fill-opacity="1" fill-rule="nonzero"/></g><g clip-path="url(#b17ade2b71)"><path fill="#0a74da" d="M 24.398438 14.34375 L 16.335938 8.386719 C 15.621094 7.859375 14.457031 7.859375 13.746094 8.386719 L 5.683594 14.34375 C 4.972656 14.871094 4.386719 15.644531 4.386719 16.0625 L 4.386719 24.699219 C 4.386719 26.101562 5.589844 27.238281 7.074219 27.238281 L 11.996094 27.238281 L 11.996094 19.597656 C 11.996094 19.007812 12.480469 18.523438 13.070312 18.523438 L 17.007812 18.523438 C 17.597656 18.523438 18.082031 19.007812 18.082031 19.597656 L 18.082031 27.238281 L 23.007812 27.238281 C 24.488281 27.238281 25.691406 26.101562 25.691406 24.699219 L 25.691406 16.0625 C 25.691406 15.644531 25.109375 14.871094 24.398438 14.34375 Z M 24.398438 14.34375 " fill-opacity="1" fill-rule="nonzero"/></g></svg>