<svg xmlns="http://www.w3.org/2000/svg" xmlns:xlink="http://www.w3.org/1999/xlink" width="40" zoomAndPan="magnify" viewBox="0 0 30 30.000001" height="40" preserveAspectRatio="xMidYMid meet" version="1.0"><defs><clipPath id="1c3cc0c029"><path d="M 24 5 L 27.730469 5 L 27.730469 10 L 24 10 Z M 24 5 " clip-rule="nonzero"/></clipPath><clipPath id="9b72cf030b"><path d="M 16 20 L 23 20 L 23 26.855469 L 16 26.855469 Z M 16 20 " clip-rule="nonzero"/></clipPath><clipPath id="95696d1944"><path d="M 2.328125 2.902344 L 20 2.902344 L 20 25 L 2.328125 25 Z M 2.328125 2.902344 " clip-rule="nonzero"/></clipPath></defs><g clip-path="url(#1c3cc0c029)"><path fill="#0a74da" d="M 24.34375 6.90625 L 25.371094 5.878906 L 27.660156 8.167969 L 26.632812 9.195312 Z M 24.34375 6.90625 " fill-opacity="1" fill-rule="nonzero"/></g><path fill="#0a74da" d="M 26.15625 9.671875 L 19.574219 16.257812 L 19.570312 16.257812 L 17.671875 18.160156 L 15.386719 15.871094 L 15.648438 15.609375 L 15.652344 15.601562 L 20.0625 11.191406 L 23.867188 7.382812 Z M 26.15625 9.671875 " fill-opacity="1" fill-rule="nonzero"/><path fill="#0a74da" d="M 23.867188 6.425781 L 23.390625 6.90625 L 22.652344 6.171875 L 21.144531 7.683594 C 21.078125 7.75 20.996094 7.78125 20.90625 7.78125 C 20.8125 7.78125 20.730469 7.75 20.664062 7.683594 C 20.597656 7.617188 20.566406 7.539062 20.566406 7.445312 C 20.566406 7.351562 20.597656 7.269531 20.664062 7.203125 L 22.414062 5.453125 C 22.480469 5.386719 22.5625 5.355469 22.65625 5.355469 C 22.75 5.355469 22.828125 5.386719 22.894531 5.453125 Z M 23.867188 6.425781 " fill-opacity="1" fill-rule="nonzero"/><path fill="#0a74da" d="M 12.066406 7.359375 C 12.066406 7.511719 12.035156 7.660156 11.976562 7.800781 C 11.917969 7.941406 11.835938 8.066406 11.726562 8.175781 C 11.617188 8.285156 11.492188 8.367188 11.347656 8.425781 C 11.207031 8.484375 11.058594 8.515625 10.902344 8.515625 C 10.75 8.515625 10.601562 8.484375 10.457031 8.425781 C 10.316406 8.367188 10.1875 8.285156 10.082031 8.175781 C 9.972656 8.066406 9.886719 7.941406 9.828125 7.800781 C 9.769531 7.660156 9.738281 7.511719 9.738281 7.359375 C 9.738281 7.207031 9.769531 7.058594 9.828125 6.917969 C 9.886719 6.773438 9.972656 6.652344 10.082031 6.542969 C 10.1875 6.433594 10.316406 6.351562 10.457031 6.292969 C 10.601562 6.234375 10.75 6.203125 10.902344 6.203125 C 11.058594 6.203125 11.207031 6.234375 11.347656 6.292969 C 11.492188 6.351562 11.617188 6.433594 11.726562 6.542969 C 11.835938 6.652344 11.917969 6.773438 11.976562 6.917969 C 12.035156 7.058594 12.066406 7.207031 12.066406 7.359375 Z M 12.066406 7.359375 " fill-opacity="1" fill-rule="nonzero"/><path fill="#0a74da" d="M 13.394531 11.050781 L 13.394531 12.277344 L 8.414062 12.277344 L 8.414062 11.050781 C 8.414062 10.804688 8.460938 10.566406 8.554688 10.339844 C 8.648438 10.113281 8.785156 9.910156 8.957031 9.738281 C 9.132812 9.5625 9.332031 9.425781 9.5625 9.332031 C 9.789062 9.238281 10.027344 9.191406 10.273438 9.191406 L 11.535156 9.191406 C 11.78125 9.191406 12.015625 9.238281 12.246094 9.332031 C 12.472656 9.429688 12.671875 9.5625 12.847656 9.738281 C 13.023438 9.910156 13.15625 10.113281 13.25 10.339844 C 13.34375 10.566406 13.390625 10.804688 13.394531 11.050781 Z M 13.394531 11.050781 " fill-opacity="1" fill-rule="nonzero"/><path fill="#0a74da" d="M 17 18.441406 L 14.566406 18.980469 L 14.769531 18.058594 L 14.773438 18.03125 L 15.101562 16.546875 Z M 17 18.441406 " fill-opacity="1" fill-rule="nonzero"/><g clip-path="url(#9b72cf030b)"><path fill="#0a74da" d="M 19.8125 20.917969 C 19.425781 20.917969 19.050781 20.992188 18.691406 21.140625 C 18.332031 21.289062 18.015625 21.5 17.738281 21.777344 C 17.464844 22.050781 17.253906 22.371094 17.101562 22.730469 C 16.953125 23.089844 16.878906 23.460938 16.878906 23.851562 C 16.878906 24.242188 16.957031 24.613281 17.105469 24.972656 C 17.253906 25.332031 17.464844 25.652344 17.742188 25.925781 C 18.015625 26.199219 18.332031 26.414062 18.691406 26.5625 C 19.050781 26.710938 19.425781 26.785156 19.816406 26.785156 C 20.203125 26.785156 20.578125 26.710938 20.9375 26.5625 C 21.296875 26.414062 21.613281 26.199219 21.890625 25.925781 C 22.164062 25.648438 22.375 25.332031 22.523438 24.972656 C 22.675781 24.613281 22.75 24.238281 22.75 23.851562 C 22.746094 23.460938 22.671875 23.085938 22.523438 22.726562 C 22.375 22.367188 22.164062 22.050781 21.886719 21.777344 C 21.613281 21.5 21.292969 21.289062 20.933594 21.140625 C 20.574219 20.992188 20.203125 20.917969 19.8125 20.917969 Z M 21.128906 24.1875 L 20.152344 24.1875 L 20.152344 25.167969 C 20.152344 25.261719 20.121094 25.34375 20.054688 25.414062 C 19.988281 25.480469 19.90625 25.515625 19.8125 25.515625 C 19.71875 25.515625 19.636719 25.480469 19.570312 25.414062 C 19.503906 25.34375 19.472656 25.261719 19.472656 25.167969 L 19.472656 24.1875 L 18.496094 24.1875 C 18.402344 24.191406 18.320312 24.160156 18.25 24.09375 C 18.183594 24.027344 18.148438 23.945312 18.148438 23.851562 C 18.148438 23.753906 18.183594 23.675781 18.25 23.609375 C 18.320312 23.542969 18.402344 23.507812 18.496094 23.511719 L 19.472656 23.511719 L 19.472656 22.535156 C 19.476562 22.441406 19.511719 22.363281 19.578125 22.300781 C 19.640625 22.238281 19.722656 22.207031 19.8125 22.207031 C 19.902344 22.207031 19.980469 22.238281 20.046875 22.300781 C 20.113281 22.363281 20.148438 22.441406 20.152344 22.535156 L 20.152344 23.511719 L 21.128906 23.511719 C 21.222656 23.507812 21.304688 23.542969 21.375 23.609375 C 21.441406 23.675781 21.476562 23.753906 21.476562 23.851562 C 21.476562 23.945312 21.441406 24.027344 21.375 24.09375 C 21.304688 24.160156 21.222656 24.191406 21.128906 24.1875 Z M 21.128906 24.1875 " fill-opacity="1" fill-rule="nonzero"/></g><g clip-path="url(#95696d1944)"><path fill="#0a74da" d="M 5.222656 15.027344 L 15.269531 15.027344 L 19.148438 11.148438 L 19.476562 10.824219 L 19.476562 3.175781 C 19.476562 3.101562 19.449219 3.035156 19.394531 2.984375 C 19.339844 2.929688 19.277344 2.902344 19.203125 2.902344 L 2.605469 2.902344 C 2.527344 2.902344 2.464844 2.929688 2.410156 2.980469 C 2.359375 3.035156 2.332031 3.101562 2.332031 3.175781 L 2.332031 24.636719 C 2.332031 24.714844 2.359375 24.777344 2.410156 24.832031 C 2.464844 24.882812 2.527344 24.910156 2.605469 24.910156 L 16.359375 24.910156 C 16.253906 24.566406 16.199219 24.210938 16.199219 23.851562 C 16.199219 21.972656 17.640625 20.425781 19.476562 20.253906 L 19.476562 17.3125 L 17.921875 18.867188 C 17.914062 18.875 17.910156 18.882812 17.902344 18.886719 C 17.878906 18.90625 17.859375 18.921875 17.832031 18.933594 C 17.808594 18.945312 17.785156 18.957031 17.761719 18.960938 C 17.757812 18.964844 17.753906 18.964844 17.746094 18.964844 L 17.738281 18.964844 L 14.195312 19.753906 C 14.136719 19.765625 14.082031 19.761719 14.027344 19.746094 C 13.972656 19.730469 13.921875 19.703125 13.882812 19.660156 C 13.839844 19.621094 13.8125 19.574219 13.796875 19.515625 C 13.78125 19.460938 13.777344 19.40625 13.789062 19.347656 L 14.019531 18.304688 L 5.222656 18.304688 C 5.128906 18.304688 5.050781 18.269531 4.988281 18.203125 C 4.925781 18.136719 4.894531 18.058594 4.894531 17.96875 C 4.894531 17.875 4.925781 17.796875 4.988281 17.730469 C 5.050781 17.667969 5.128906 17.632812 5.222656 17.628906 L 14.171875 17.628906 L 14.574219 15.800781 L 14.578125 15.796875 C 14.578125 15.792969 14.582031 15.785156 14.582031 15.78125 C 14.582031 15.777344 14.585938 15.773438 14.585938 15.769531 C 14.585938 15.765625 14.589844 15.757812 14.589844 15.753906 C 14.59375 15.75 14.59375 15.746094 14.597656 15.742188 C 14.601562 15.726562 14.605469 15.714844 14.613281 15.703125 L 5.222656 15.703125 C 5.128906 15.703125 5.050781 15.667969 4.988281 15.601562 C 4.925781 15.535156 4.894531 15.457031 4.894531 15.367188 C 4.894531 15.273438 4.925781 15.195312 4.988281 15.128906 C 5.050781 15.066406 5.128906 15.03125 5.222656 15.027344 Z M 7.734375 11.050781 C 7.734375 10.777344 7.78125 10.507812 7.867188 10.25 C 7.953125 9.988281 8.078125 9.75 8.246094 9.527344 C 8.410156 9.308594 8.605469 9.121094 8.832031 8.964844 C 9.054688 8.808594 9.300781 8.691406 9.5625 8.617188 C 9.230469 8.265625 9.0625 7.84375 9.0625 7.359375 C 9.066406 7.117188 9.113281 6.886719 9.210938 6.664062 C 9.304688 6.441406 9.4375 6.242188 9.609375 6.074219 C 9.78125 5.902344 9.980469 5.773438 10.203125 5.679688 C 10.429688 5.589844 10.660156 5.542969 10.902344 5.542969 C 11.144531 5.542969 11.378906 5.589844 11.601562 5.679688 C 11.824219 5.773438 12.023438 5.902344 12.195312 6.074219 C 12.367188 6.242188 12.5 6.441406 12.597656 6.664062 C 12.691406 6.886719 12.738281 7.117188 12.742188 7.359375 C 12.742188 7.84375 12.574219 8.265625 12.242188 8.617188 C 12.503906 8.691406 12.75 8.808594 12.976562 8.964844 C 13.199219 9.121094 13.394531 9.308594 13.5625 9.527344 C 13.726562 9.75 13.851562 9.988281 13.9375 10.25 C 14.023438 10.507812 14.070312 10.777344 14.070312 11.050781 L 14.070312 12.617188 C 14.070312 12.710938 14.035156 12.789062 13.96875 12.855469 C 13.90625 12.921875 13.824219 12.953125 13.730469 12.953125 L 8.074219 12.953125 C 7.980469 12.953125 7.902344 12.921875 7.835938 12.855469 C 7.769531 12.789062 7.734375 12.710938 7.734375 12.617188 Z M 5.222656 20.238281 L 16.582031 20.238281 C 16.675781 20.242188 16.753906 20.277344 16.816406 20.34375 C 16.878906 20.40625 16.910156 20.488281 16.910156 20.578125 C 16.910156 20.667969 16.878906 20.75 16.816406 20.8125 C 16.753906 20.878906 16.675781 20.914062 16.582031 20.917969 L 5.222656 20.917969 C 5.128906 20.914062 5.050781 20.878906 4.988281 20.8125 C 4.925781 20.75 4.894531 20.667969 4.894531 20.578125 C 4.894531 20.488281 4.925781 20.40625 4.988281 20.34375 C 5.050781 20.277344 5.128906 20.242188 5.222656 20.238281 Z M 5.222656 20.238281 " fill-opacity="1" fill-rule="nonzero"/></g></svg>