<svg xmlns="http://www.w3.org/2000/svg" xmlns:xlink="http://www.w3.org/1999/xlink" width="40" zoomAndPan="magnify" viewBox="0 0 30 30.000001" height="40" preserveAspectRatio="xMidYMid meet" version="1.0"><defs><clipPath id="8ae8b20a1f"><path d="M 6.035156 1.453125 L 24 1.453125 L 24 27.582031 L 6.035156 27.582031 Z M 6.035156 1.453125 " clip-rule="nonzero"/></clipPath></defs><g clip-path="url(#8ae8b20a1f)"><path fill="#0a74da" d="M 15 1.460938 C 19.949219 1.460938 23.964844 5.476562 23.964844 10.425781 C 23.964844 12.148438 23.476562 13.757812 22.636719 15.125 C 21.625 16.796875 20.613281 18.472656 19.605469 20.144531 C 18.375 22.144531 17.378906 23.765625 16.148438 25.765625 C 15.0625 27.527344 14.992188 27.570312 13.898438 25.796875 C 12.675781 23.808594 11.644531 22.136719 10.421875 20.144531 C 9.414062 18.488281 8.40625 16.835938 7.398438 15.179688 C 6.535156 13.800781 6.035156 12.171875 6.035156 10.425781 C 6.035156 5.476562 10.046875 1.460938 15 1.460938 Z M 15 5.957031 C 17.21875 5.957031 19.019531 7.753906 19.019531 9.976562 C 19.019531 12.195312 17.21875 13.992188 15 13.992188 C 12.78125 13.992188 10.980469 12.195312 10.980469 9.976562 C 10.980469 7.753906 12.78125 5.957031 15 5.957031 Z M 15 5.957031 " fill-opacity="1" fill-rule="evenodd"/></g></svg>