<svg xmlns="http://www.w3.org/2000/svg" xmlns:xlink="http://www.w3.org/1999/xlink" width="50" zoomAndPan="magnify" viewBox="0 0 37.5 37.499999" height="50" preserveAspectRatio="xMidYMid meet" version="1.0"><defs><clipPath id="7720e6cfc7"><path d="M 1 7 L 17 7 L 17 20 L 1 20 Z M 1 7 " clip-rule="nonzero"/></clipPath><clipPath id="ec429afdf6"><path d="M 0.554688 15.582031 L 14.246094 5.90625 L 18.121094 11.394531 L 4.429688 21.070312 Z M 0.554688 15.582031 " clip-rule="nonzero"/></clipPath><clipPath id="31ca847918"><path d="M 3.296875 13.644531 L 11.488281 7.859375 C 13 6.789062 15.097656 7.148438 16.167969 8.664062 C 17.238281 10.179688 16.878906 12.273438 15.363281 13.34375 L 7.171875 19.132812 C 5.65625 20.203125 3.5625 19.839844 2.492188 18.328125 C 1.421875 16.8125 1.78125 14.714844 3.296875 13.644531 Z M 3.296875 13.644531 " clip-rule="nonzero"/></clipPath><clipPath id="81db2f356f"><path d="M 1 13 L 17 13 L 17 25 L 1 25 Z M 1 13 " clip-rule="nonzero"/></clipPath><clipPath id="fe2009a1a3"><path d="M 3.175781 12.148438 L 18.109375 20.164062 L 14.933594 26.085938 L -0.00390625 18.066406 Z M 3.175781 12.148438 " clip-rule="nonzero"/></clipPath><clipPath id="0aef9fbada"><path d="M 6.132812 13.738281 L 15.140625 18.570312 C 16.777344 19.449219 17.390625 21.484375 16.511719 23.121094 C 15.632812 24.753906 13.597656 25.367188 11.964844 24.492188 L 2.957031 19.65625 C 1.320312 18.777344 0.707031 16.742188 1.585938 15.109375 C 2.460938 13.472656 4.5 12.859375 6.132812 13.738281 Z M 6.132812 13.738281 " clip-rule="nonzero"/></clipPath><clipPath id="f29f6f20ed"><path d="M 19 12 L 35 12 L 35 26 L 19 26 Z M 19 12 " clip-rule="nonzero"/></clipPath><clipPath id="d2fc4133fd"><path d="M 36.195312 16.796875 L 22.5 26.472656 L 18.625 20.984375 L 32.320312 11.308594 Z M 36.195312 16.796875 " clip-rule="nonzero"/></clipPath><clipPath id="a6e31390b0"><path d="M 33.453125 18.734375 L 25.261719 24.523438 C 23.746094 25.59375 21.648438 25.230469 20.578125 23.71875 C 19.507812 22.203125 19.871094 20.105469 21.386719 19.035156 L 29.574219 13.25 C 31.089844 12.179688 33.1875 12.539062 34.257812 14.054688 C 35.328125 15.566406 34.96875 17.664062 33.453125 18.734375 Z M 33.453125 18.734375 " clip-rule="nonzero"/></clipPath><clipPath id="b4555ac371"><path d="M 20 7 L 36 7 L 36 19 L 20 19 Z M 20 7 " clip-rule="nonzero"/></clipPath><clipPath id="4845f2d64a"><path d="M 33.824219 19.839844 L 18.886719 11.824219 L 22.0625 5.90625 L 37 13.921875 Z M 33.824219 19.839844 " clip-rule="nonzero"/></clipPath><clipPath id="7e9f7ab4f4"><path d="M 30.863281 18.25 L 21.855469 13.417969 C 20.222656 12.539062 19.605469 10.503906 20.484375 8.867188 C 21.363281 7.234375 23.398438 6.621094 25.03125 7.496094 L 34.039062 12.332031 C 35.675781 13.210938 36.289062 15.246094 35.410156 16.878906 C 34.535156 18.515625 32.496094 19.128906 30.863281 18.25 Z M 30.863281 18.25 " clip-rule="nonzero"/></clipPath></defs><g clip-path="url(#7720e6cfc7)"><g clip-path="url(#ec429afdf6)"><g clip-path="url(#31ca847918)"><path fill="#e94b3d" d="M 0.554688 15.582031 L 14.226562 5.921875 L 18.101562 11.410156 L 4.429688 21.070312 Z M 0.554688 15.582031 " fill-opacity="1" fill-rule="nonzero"/></g></g></g><g clip-path="url(#81db2f356f)"><g clip-path="url(#fe2009a1a3)"><g clip-path="url(#0aef9fbada)"><path fill="#4c88f2" d="M 3.175781 12.148438 L 18.109375 20.164062 L 14.933594 26.085938 L -0.00390625 18.066406 Z M 3.175781 12.148438 " fill-opacity="1" fill-rule="nonzero"/></g></g></g><g clip-path="url(#f29f6f20ed)"><g clip-path="url(#d2fc4133fd)"><g clip-path="url(#a6e31390b0)"><path fill="#f9bf1f" d="M 36.195312 16.796875 L 22.523438 26.457031 L 18.644531 20.972656 L 32.320312 11.308594 Z M 36.195312 16.796875 " fill-opacity="1" fill-rule="nonzero"/></g></g></g><g clip-path="url(#b4555ac371)"><g clip-path="url(#4845f2d64a)"><g clip-path="url(#7e9f7ab4f4)"><path fill="#29a25f" d="M 33.824219 19.839844 L 18.886719 11.824219 L 22.0625 5.90625 L 37 13.921875 Z M 33.824219 19.839844 " fill-opacity="1" fill-rule="nonzero"/></g></g></g></svg>