<svg xmlns="http://www.w3.org/2000/svg" xmlns:xlink="http://www.w3.org/1999/xlink" width="40" zoomAndPan="magnify" viewBox="0 0 30 30.000001" height="40" preserveAspectRatio="xMidYMid meet" version="1.0"><defs><clipPath id="7ccc0725de"><path d="M 6.671875 1.109375 L 23.363281 1.109375 L 23.363281 27.964844 L 6.671875 27.964844 Z M 6.671875 1.109375 " clip-rule="nonzero"/></clipPath></defs><g clip-path="url(#7ccc0725de)"><path fill="#0a74da" d="M 16.691406 23.484375 L 13.375 23.484375 L 13.375 25.800781 C 11.636719 25.914062 9.894531 26.203125 8.148438 26.671875 L 8.148438 27.863281 L 21.835938 27.863281 L 21.835938 26.671875 C 20.121094 26.203125 18.40625 25.917969 16.691406 25.804688 Z M 13.339844 14.695312 C 13.636719 14.695312 13.878906 14.933594 13.878906 15.234375 C 13.878906 15.53125 13.636719 15.773438 13.339844 15.773438 L 9.199219 15.773438 C 9.789062 18.429688 12.160156 20.414062 14.992188 20.414062 C 17.828125 20.414062 20.195312 18.429688 20.789062 15.773438 L 16.648438 15.773438 C 16.351562 15.773438 16.109375 15.53125 16.109375 15.234375 C 16.109375 14.933594 16.347656 14.695312 16.648438 14.695312 L 20.925781 14.695312 C 20.929688 14.621094 20.933594 14.546875 20.933594 14.472656 L 20.933594 13.503906 L 16.648438 13.503906 C 16.351562 13.503906 16.109375 13.261719 16.109375 12.964844 C 16.109375 12.667969 16.347656 12.425781 16.648438 12.425781 L 20.933594 12.425781 L 20.933594 11.234375 L 16.648438 11.234375 C 16.351562 11.234375 16.109375 10.996094 16.109375 10.695312 C 16.109375 10.398438 16.347656 10.160156 16.648438 10.160156 L 20.933594 10.160156 L 20.933594 8.96875 L 16.648438 8.96875 C 16.351562 8.96875 16.109375 8.726562 16.109375 8.429688 C 16.109375 8.132812 16.347656 7.890625 16.648438 7.890625 L 20.933594 7.890625 L 20.933594 7.101562 C 20.933594 6.964844 20.925781 6.832031 20.917969 6.699219 L 16.648438 6.699219 C 16.351562 6.699219 16.109375 6.457031 16.109375 6.160156 C 16.109375 5.863281 16.347656 5.621094 16.648438 5.621094 L 20.746094 5.621094 C 20.089844 3.058594 17.761719 1.164062 14.992188 1.164062 C 12.222656 1.164062 9.898438 3.058594 9.238281 5.621094 L 13.339844 5.621094 C 13.636719 5.621094 13.878906 5.863281 13.878906 6.160156 C 13.878906 6.457031 13.636719 6.699219 13.339844 6.699219 L 9.070312 6.699219 C 9.058594 6.832031 9.054688 6.96875 9.054688 7.101562 L 9.054688 7.890625 L 13.339844 7.890625 C 13.636719 7.890625 13.878906 8.132812 13.878906 8.429688 C 13.878906 8.726562 13.636719 8.96875 13.339844 8.96875 L 9.054688 8.96875 L 9.054688 10.160156 L 13.339844 10.160156 C 13.636719 10.160156 13.878906 10.398438 13.878906 10.699219 C 13.878906 10.996094 13.636719 11.234375 13.339844 11.234375 L 9.054688 11.234375 L 9.054688 12.425781 L 13.339844 12.425781 C 13.636719 12.425781 13.878906 12.667969 13.878906 12.964844 C 13.878906 13.261719 13.636719 13.503906 13.339844 13.503906 L 9.054688 13.503906 L 9.054688 14.472656 C 9.054688 14.550781 9.058594 14.621094 9.058594 14.695312 Z M 22.125 13.175781 L 22.125 14.472656 C 22.125 18.40625 18.925781 21.605469 14.992188 21.605469 C 11.0625 21.605469 7.863281 18.40625 7.863281 14.472656 L 7.863281 13.175781 L 6.671875 13.175781 L 6.671875 14.472656 C 6.671875 19.0625 10.402344 22.796875 14.992188 22.796875 C 19.582031 22.796875 23.316406 19.0625 23.316406 14.472656 L 23.316406 13.175781 Z M 22.125 13.175781 " fill-opacity="1" fill-rule="nonzero"/></g></svg>