<svg xmlns="http://www.w3.org/2000/svg" xmlns:xlink="http://www.w3.org/1999/xlink" width="40" zoomAndPan="magnify" viewBox="0 0 30 30.000001" height="40" preserveAspectRatio="xMidYMid meet" version="1.0"><defs><clipPath id="12ae17944e"><path d="M 2.433594 1.355469 L 27.835938 1.355469 L 27.835938 27.484375 L 2.433594 27.484375 Z M 2.433594 1.355469 " clip-rule="nonzero"/></clipPath></defs><g clip-path="url(#12ae17944e)"><path fill="#0a74da" d="M 23.023438 3.988281 L 21.800781 3.988281 L 21.800781 2.164062 C 21.800781 1.722656 21.445312 1.371094 21.011719 1.371094 C 20.570312 1.371094 20.21875 1.726562 20.21875 2.164062 L 20.21875 3.988281 L 9.324219 3.988281 L 9.324219 2.164062 C 9.324219 1.722656 8.964844 1.371094 8.53125 1.371094 C 8.09375 1.371094 7.738281 1.726562 7.738281 2.164062 L 7.738281 3.988281 L 6.96875 3.988281 C 4.464844 3.988281 2.433594 6.019531 2.433594 8.527344 L 2.433594 23.117188 C 2.433594 25.621094 4.464844 27.652344 6.96875 27.652344 L 23.023438 27.652344 C 25.53125 27.652344 27.558594 25.621094 27.558594 23.117188 L 27.558594 8.527344 C 27.5625 6.019531 25.53125 3.988281 23.023438 3.988281 Z M 20.214844 4.824219 L 20.214844 6.472656 C 20.214844 6.910156 20.570312 7.265625 21.007812 7.265625 C 21.445312 7.265625 21.800781 6.910156 21.800781 6.472656 L 21.800781 4.886719 C 22.308594 5.183594 22.652344 5.730469 22.652344 6.359375 C 22.652344 7.300781 21.886719 8.0625 20.949219 8.0625 C 20.007812 8.0625 19.246094 7.300781 19.246094 6.359375 C 19.25 5.683594 19.644531 5.101562 20.214844 4.824219 Z M 7.734375 4.855469 L 7.734375 6.472656 C 7.734375 6.910156 8.09375 7.265625 8.527344 7.265625 C 8.964844 7.265625 9.320312 6.910156 9.320312 6.472656 L 9.320312 4.855469 C 9.859375 5.140625 10.226562 5.707031 10.226562 6.359375 C 10.226562 7.296875 9.464844 8.0625 8.523438 8.0625 C 7.585938 8.0625 6.820312 7.296875 6.820312 6.359375 C 6.828125 5.707031 7.199219 5.140625 7.734375 4.855469 Z M 25.976562 23.113281 C 25.976562 24.742188 24.652344 26.0625 23.027344 26.0625 L 6.96875 26.0625 C 5.339844 26.0625 4.019531 24.738281 4.019531 23.113281 L 4.019531 11.027344 L 25.976562 11.027344 Z M 25.976562 23.113281 " fill-opacity="1" fill-rule="nonzero"/></g><path fill="#0a74da" d="M 9.347656 15.605469 L 7.148438 15.605469 C 6.972656 15.605469 6.828125 15.460938 6.828125 15.28125 L 6.828125 13.085938 C 6.828125 12.910156 6.972656 12.765625 7.148438 12.765625 L 9.347656 12.765625 C 9.523438 12.765625 9.667969 12.910156 9.667969 13.085938 L 9.667969 15.28125 C 9.664062 15.460938 9.523438 15.605469 9.347656 15.605469 Z M 9.347656 15.605469 " fill-opacity="1" fill-rule="nonzero"/><path fill="#0a74da" d="M 9.347656 20.109375 L 7.148438 20.109375 C 6.972656 20.109375 6.828125 19.964844 6.828125 19.789062 L 6.828125 17.59375 C 6.828125 17.414062 6.972656 17.269531 7.148438 17.269531 L 9.347656 17.269531 C 9.523438 17.269531 9.667969 17.414062 9.667969 17.59375 L 9.667969 19.789062 C 9.664062 19.96875 9.523438 20.109375 9.347656 20.109375 Z M 9.347656 20.109375 " fill-opacity="1" fill-rule="nonzero"/><path fill="#0a74da" d="M 9.347656 24.621094 L 7.148438 24.621094 C 6.972656 24.621094 6.828125 24.476562 6.828125 24.300781 L 6.828125 22.101562 C 6.828125 21.925781 6.972656 21.78125 7.148438 21.78125 L 9.347656 21.78125 C 9.523438 21.78125 9.667969 21.925781 9.667969 22.101562 L 9.667969 24.304688 C 9.664062 24.476562 9.523438 24.621094 9.347656 24.621094 Z M 9.347656 24.621094 " fill-opacity="1" fill-rule="nonzero"/><path fill="#0a74da" d="M 13.851562 15.605469 L 11.65625 15.605469 C 11.480469 15.605469 11.335938 15.460938 11.335938 15.28125 L 11.335938 13.085938 C 11.335938 12.910156 11.480469 12.765625 11.65625 12.765625 L 13.851562 12.765625 C 14.03125 12.765625 14.175781 12.910156 14.175781 13.085938 L 14.175781 15.28125 C 14.175781 15.460938 14.03125 15.605469 13.851562 15.605469 Z M 13.851562 15.605469 " fill-opacity="1" fill-rule="nonzero"/><path fill="#0a74da" d="M 13.851562 20.109375 L 11.65625 20.109375 C 11.480469 20.109375 11.335938 19.964844 11.335938 19.789062 L 11.335938 17.59375 C 11.335938 17.414062 11.480469 17.269531 11.65625 17.269531 L 13.851562 17.269531 C 14.03125 17.269531 14.175781 17.414062 14.175781 17.59375 L 14.175781 19.789062 C 14.175781 19.96875 14.03125 20.109375 13.851562 20.109375 Z M 13.851562 20.109375 " fill-opacity="1" fill-rule="nonzero"/><path fill="#0a74da" d="M 13.851562 24.621094 L 11.65625 24.621094 C 11.480469 24.621094 11.335938 24.476562 11.335938 24.300781 L 11.335938 22.101562 C 11.335938 21.925781 11.480469 21.78125 11.65625 21.78125 L 13.851562 21.78125 C 14.03125 21.78125 14.175781 21.925781 14.175781 22.101562 L 14.175781 24.304688 C 14.175781 24.476562 14.03125 24.621094 13.851562 24.621094 Z M 13.851562 24.621094 " fill-opacity="1" fill-rule="nonzero"/><path fill="#0a74da" d="M 18.363281 15.605469 L 16.164062 15.605469 C 15.988281 15.605469 15.84375 15.460938 15.84375 15.28125 L 15.84375 13.085938 C 15.84375 12.910156 15.988281 12.765625 16.164062 12.765625 L 18.363281 12.765625 C 18.539062 12.765625 18.683594 12.910156 18.683594 13.085938 L 18.683594 15.28125 C 18.679688 15.460938 18.539062 15.605469 18.363281 15.605469 Z M 18.363281 15.605469 " fill-opacity="1" fill-rule="nonzero"/><path fill="#0a74da" d="M 18.363281 20.109375 L 16.164062 20.109375 C 15.988281 20.109375 15.84375 19.964844 15.84375 19.789062 L 15.84375 17.59375 C 15.84375 17.414062 15.988281 17.269531 16.164062 17.269531 L 18.363281 17.269531 C 18.539062 17.269531 18.683594 17.414062 18.683594 17.59375 L 18.683594 19.789062 C 18.679688 19.96875 18.539062 20.109375 18.363281 20.109375 Z M 18.363281 20.109375 " fill-opacity="1" fill-rule="nonzero"/><path fill="#0a74da" d="M 18.363281 24.621094 L 16.164062 24.621094 C 15.988281 24.621094 15.84375 24.476562 15.84375 24.300781 L 15.84375 22.101562 C 15.84375 21.925781 15.988281 21.78125 16.164062 21.78125 L 18.363281 21.78125 C 18.539062 21.78125 18.683594 21.925781 18.683594 22.101562 L 18.683594 24.304688 C 18.679688 24.476562 18.539062 24.621094 18.363281 24.621094 Z M 18.363281 24.621094 " fill-opacity="1" fill-rule="nonzero"/><path fill="#0a74da" d="M 22.875 15.605469 L 20.675781 15.605469 C 20.5 15.605469 20.355469 15.460938 20.355469 15.28125 L 20.355469 13.085938 C 20.355469 12.910156 20.5 12.765625 20.675781 12.765625 L 22.875 12.765625 C 23.050781 12.765625 23.195312 12.910156 23.195312 13.085938 L 23.195312 15.28125 C 23.191406 15.460938 23.046875 15.605469 22.875 15.605469 Z M 22.875 15.605469 " fill-opacity="1" fill-rule="nonzero"/><path fill="#0a74da" d="M 22.875 20.109375 L 20.675781 20.109375 C 20.5 20.109375 20.355469 19.964844 20.355469 19.789062 L 20.355469 17.59375 C 20.355469 17.414062 20.5 17.269531 20.675781 17.269531 L 22.875 17.269531 C 23.050781 17.269531 23.195312 17.414062 23.195312 17.59375 L 23.195312 19.789062 C 23.191406 19.96875 23.046875 20.109375 22.875 20.109375 Z M 22.875 20.109375 " fill-opacity="1" fill-rule="nonzero"/></svg>