<svg xmlns="http://www.w3.org/2000/svg" xmlns:xlink="http://www.w3.org/1999/xlink" width="40" zoomAndPan="magnify" viewBox="0 0 30 30.000001" height="40" preserveAspectRatio="xMidYMid meet" version="1.0"><defs><clipPath id="e0db95f680"><path d="M 3 2.359375 L 27.519531 2.359375 L 27.519531 27 L 3 27 Z M 3 2.359375 " clip-rule="nonzero"/></clipPath></defs><g clip-path="url(#e0db95f680)"><path fill="#0a74da" d="M 8.382812 9.019531 C 8.386719 8.582031 8.429688 8.152344 8.511719 7.722656 C 8.597656 7.296875 8.726562 6.878906 8.894531 6.476562 C 9.058594 6.074219 9.265625 5.691406 9.507812 5.328125 C 9.75 4.964844 10.027344 4.628906 10.335938 4.320312 C 10.644531 4.011719 10.980469 3.734375 11.339844 3.492188 C 11.703125 3.25 12.085938 3.046875 12.492188 2.878906 C 12.894531 2.710938 13.308594 2.585938 13.738281 2.5 C 14.164062 2.414062 14.597656 2.371094 15.035156 2.371094 C 23.824219 2.679688 23.839844 15.332031 15.058594 15.667969 C 14.621094 15.671875 14.1875 15.628906 13.757812 15.542969 C 13.328125 15.460938 12.910156 15.335938 12.507812 15.167969 C 12.101562 15 11.71875 14.796875 11.351562 14.554688 C 10.988281 14.3125 10.652344 14.035156 10.34375 13.726562 C 10.03125 13.417969 9.753906 13.082031 9.511719 12.71875 C 9.269531 12.355469 9.0625 11.972656 8.894531 11.570312 C 8.726562 11.164062 8.601562 10.75 8.515625 10.320312 C 8.429688 9.890625 8.386719 9.457031 8.382812 9.019531 Z M 21.765625 15.671875 C 21.582031 15.5625 21.386719 15.507812 21.175781 15.515625 C 20.960938 15.519531 20.769531 15.582031 20.59375 15.703125 C 20.195312 16.023438 19.777344 16.308594 19.328125 16.558594 C 18.882812 16.808594 18.417969 17.019531 17.9375 17.1875 C 17.453125 17.355469 16.960938 17.484375 16.457031 17.566406 C 15.953125 17.652344 15.445312 17.691406 14.933594 17.6875 C 14.421875 17.683594 13.914062 17.636719 13.410156 17.546875 C 12.910156 17.453125 12.417969 17.320312 11.9375 17.144531 C 11.457031 16.96875 10.996094 16.753906 10.554688 16.496094 C 10.109375 16.242188 9.691406 15.949219 9.300781 15.621094 C 8.980469 15.476562 8.671875 15.492188 8.367188 15.671875 C 7.546875 16.21875 6.804688 16.855469 6.140625 17.585938 C 5.480469 18.316406 4.914062 19.117188 4.449219 19.984375 C 3.984375 20.855469 3.632812 21.769531 3.394531 22.726562 C 3.152344 23.683594 3.035156 24.65625 3.035156 25.640625 C 3.035156 25.777344 3.0625 25.90625 3.113281 26.03125 C 3.167969 26.15625 3.242188 26.269531 3.335938 26.363281 C 3.433594 26.460938 3.542969 26.535156 3.667969 26.585938 C 3.792969 26.636719 3.921875 26.664062 4.058594 26.664062 L 26.042969 26.664062 C 26.179688 26.664062 26.308594 26.636719 26.433594 26.585938 C 26.558594 26.535156 26.671875 26.460938 26.765625 26.363281 C 26.863281 26.269531 26.9375 26.15625 26.988281 26.03125 C 27.039062 25.90625 27.066406 25.777344 27.066406 25.640625 C 27.0625 24.65625 26.945312 23.6875 26.707031 22.734375 C 26.46875 21.777344 26.117188 20.867188 25.65625 19.996094 C 25.195312 19.128906 24.632812 18.328125 23.976562 17.597656 C 23.316406 16.863281 22.578125 16.222656 21.765625 15.671875 Z M 21.765625 15.671875 " fill-opacity="1" fill-rule="nonzero"/></g></svg>